<?xml version="1.0" encoding="UTF-8" standalone="no"?>
<svg
   version="1.1"
   id="Wrapped-Gift--Streamline-Noto-Emoji"
   x="0"
   y="0"
   viewBox="0 0 32 32"
   xml:space="preserve"
   enable-background="new 0 0 128 128"
   height="32"
   width="32"
   sodipodi:docname="favicon.svg"
   inkscape:version="1.4.2 (f4327f4, 2025-05-13)"
   xmlns:inkscape="http://www.inkscape.org/namespaces/inkscape"
   xmlns:sodipodi="http://sodipodi.sourceforge.net/DTD/sodipodi-0.dtd"
   xmlns:xlink="http://www.w3.org/1999/xlink"
   xmlns="http://www.w3.org/2000/svg"
   xmlns:svg="http://www.w3.org/2000/svg"><defs
   id="defs14"><linearGradient
     id="linearGradient15"
     inkscape:collect="always"><stop
       style="stop-color:#000000;stop-opacity:1;"
       offset="0"
       id="stop15" /><stop
       style="stop-color:#000000;stop-opacity:0;"
       offset="1"
       id="stop16" /></linearGradient><radialGradient
     inkscape:collect="always"
     xlink:href="#linearGradient15"
     id="radialGradient16"
     cx="16.511522"
     cy="15.988861"
     fx="16.511522"
     fy="15.988861"
     r="7.6724863"
     gradientTransform="matrix(1,0,0,1.3242507,0,-5.1843993)"
     gradientUnits="userSpaceOnUse" /></defs><sodipodi:namedview
   id="namedview14"
   pagecolor="#ffffff"
   bordercolor="#999999"
   borderopacity="1"
   inkscape:showpageshadow="2"
   inkscape:pageopacity="0"
   inkscape:pagecheckerboard="0"
   inkscape:deskcolor="#d1d1d1"
   showgrid="false"
   inkscape:zoom="8.9161746"
   inkscape:cx="27.814619"
   inkscape:cy="-2.2991923"
   inkscape:window-width="1920"
   inkscape:window-height="1009"
   inkscape:window-x="1912"
   inkscape:window-y="-8"
   inkscape:window-maximized="1"
   inkscape:current-layer="Wrapped-Gift--Streamline-Noto-Emoji" />
  <desc
   id="desc1">
    Wrapped Gift Streamline Emoji: https://streamlinehq.com
  </desc>
  <path
   d="M4.1 7.9325s-1.6125 0.1275 -1.8275 0.49c-0.2175 0.3625 -0.23 0.92 -0.23 1.5325 0 0.615 -0.025 2.025 -0.025 2.025l0.385 0.8275s0.0725 10.5475 0.0725 10.875c0 0.325 0 0.7225 0.47 0.975 0.47 0.2525 12.415 6.0225 12.7875 6.1775 0.5625 0.2325 0.83 0.145 0.83 0.145l13.2725 -22.1975s-0.0425 -0.6075 -0.595 -0.7525c-0.3175 -0.08 -25.14 -0.0975 -25.14 -0.0975z"
   fill="#F5B03E"
   stroke-width="0.25"
   id="path1" />
  <path
   d="M16.42 15.23c-0.2025 0.5575 -0.11 6.3225 -0.075 10.515 0.035 4.19 -0.1075 5.0575 0 5.2025 0.1075 0.145 0.4 0.005 1.2275 -0.3625 1.5375 -0.68 8.9225 -4.335 9.465 -4.66 0.5425 -0.325 1.8675 -0.9975 2.085 -1.36s0.335 -3.735 0.4075 -6.4425c0.0725 -2.71 0.145 -4.8775 0.145 -4.8775l0.325 -0.975s-0.07 -2.635 -0.0825 -2.925c-0.0225 -0.48 -0.075 -0.7275 -0.1975 -0.6675 -0.175 0.0825 -1.635 1.28 -5.5 3.16 -2.4275 1.1775 -7.66 3.0075 -7.8 3.3925z"
   fill="#E07F14"
   stroke-width="0.25"
   id="path2" />
  <path
   d="M16.455 2.8025c-1.0825 -0.05 -4.045 1.6625 -6.9 2.6S2.39 8.225 2.3525 8.335c-0.035 0.1075 1.735 0.9 2.865 1.4425 1.3425 0.6425 6.4675 3.07 7.405 3.4675 0.94 0.3975 3.18 1.3275 3.54 1.3 0.505 -0.035 5.275 -1.915 7.695 -3.07s5.445 -2.945 5.485 -3.38c0.0175 -0.195 -4.45 -1.8625 -6.6775 -2.87 -4.3 -1.9475 -5.4175 -2.385 -6.21 -2.4225z"
   fill="#FDD717"
   stroke-width="0.25"
   id="path3" />
  <path
   d="M2.03 12.4425c0.0375 0.47 0.295 0.6375 0.95 0.9225 0.655 0.285 13.0375 6.7175 13.3225 6.7175 0.285 0 0.37 -1.02 0.0575 -0.9925 -0.17 0.015 -4.2375 -1.9175 -8.0375 -3.8475C5.0975 13.6075 2.01 11.975 2.01 11.975l0.02 0.4675z"
   fill="#E37D14"
   stroke-width="0.25"
   id="path4" />
  <path
   d="M30.0025 12.2475S16.78 18.9725 16.65 19.0375s-0.3375 0.0425 -0.3375 0.0425l-0.01 1.0025s0.1225 0.0275 0.26 -0.015c0.08 -0.025 13.0575 -6.7425 13.115 -6.7625s0.3075 -0.17 0.36 -0.4875c0.045 -0.255 -0.035 -0.57 -0.035 -0.57z"
   fill="#BA5E0D"
   stroke-width="0.25"
   id="path5" />
  <path
   d="m7.215 24.355 2.5875 3.85 1.1325 0.3875s0.0925 -4.2 0.13 -7.3125c0.0525 -4.5475 0.0325 -8.695 0.0975 -8.93 0.1075 -0.3975 5.14 -2.03 5.14 -2.03S21.9875 12.1025 22.1675 12.5c0.08 0.175 0.0175 3.12 0 6.5525 -0.0225 4.335 -0.015 9.34 -0.015 9.34s0.5875 -0.0025 0.6575 -0.22c0.0725 -0.2175 0.3625 -1.895 0.3625 -1.895l2.205 -14.6975 1.12 -1.445 -1.555 -2.96 -6.38 -3.14 -2.1925 0.4925 -2.3725 -0.3625 -7.525 5.4075 0.8775 1.78 2.1525 1.0975 -2.2875 11.905z"
   fill="#AF0F1B"
   stroke-width="0.25"
   id="path6" />
  <path
   d="M22.82 12.3475c-0.1375 0.3025 -0.0575 15.89 -0.0575 15.89s0.6875 -0.38 1.5725 -0.805c0.88 -0.4225 1.5125 -0.685 1.5675 -0.905s0.1525 -15.635 0.1525 -15.635l-3.235 1.455z"
   fill="#DC0D28"
   stroke-width="0.25"
   id="path7" />
  <path
   d="M10.3375 12.025c0.0825 0.09 -0.0525 16.265 -0.22 16.3025 -0.1325 0.0325 -3.145 -1.3125 -3.145 -1.45 0 -0.1375 0.2425 -15.595 0.2425 -15.595S10.0925 11.75 10.3375 12.025z"
   fill="#FF2A23"
   stroke-width="0.25"
   id="path8" />
  <path
   d="M16.3075 3.5625c-0.8325 0 -1.7525 0.2375 -2.02 0.935s-0.3275 1.735 -0.3275 2.51c0 0.7425 -0.12 2.6425 2.1675 2.6125 2.2875 -0.03 2.355 -0.8775 2.39 -2.7475 0.03 -1.56 -0.1775 -2.3175 -0.385 -2.6425 -0.185 -0.2925 -0.8 -0.6675 -1.825 -0.6675z"
   fill="#FF2A23"
   stroke-width="0.25"
   id="path9" />
  <path
   d="M14.985 7.4225c0.52 0.03 0.7425 -1.1125 1.1425 -1.7375 0.4 -0.6225 0.8175 -1.04 0.6675 -1.365 -0.1225 -0.27 -1.21 -0.3575 -1.7975 0.46 -0.4125 0.5775 -0.485 2.615 -0.0125 2.6425z"
   fill="#FCC9D2"
   stroke-width="0.25"
   id="path10" />
  <path
   d="M18.3325 4.105s0.7375 0.75 0.93 2.22 -0.03 2.6125 -0.03 2.6125 3.665 -0.11 4.93 0.1325c1.2475 0.2425 1.6825 0.7925 1.6825 1.1925 0 0.4 -0.82 0.7225 -1.6525 0.6625s-1.395 -0.105 -1.5 0.105 0.045 0.535 1.2025 0.6225c1.1575 0.09 2.495 -0.075 2.91 -1.515s0.43 -3.935 0.2825 -5.7325c-0.1475 -1.7975 -0.4725 -2.825 -1.2775 -3.215 -0.8475 -0.4075 -2.97 -0.475 -4.975 0.6525s-2.5025 2.2625 -2.5025 2.2625z"
   fill="#FF2A23"
   stroke-width="0.25"
   id="path11" />
  <path
   d="M22.485 2.395c-0.26 -0.335 -1.0975 -0.325 -1.545 0.1925 -0.475 0.55 -0.58 2.6425 0.03 2.7625 0.69 0.135 0.565 -0.995 1.07 -1.6925 0.495 -0.6825 0.6975 -0.935 0.445 -1.2625z"
   fill="#FCC9D2"
   stroke-width="0.25"
   id="path12" />
  <path
   d="M14.095 4.1775S11.2875 0.905 8.08 0.955c-1.93 0.03 -2.42 1.1425 -2.525 1.6025s-0.905 5.035 0.1625 7.5125S9 11.905 9.3475 11.825c0.445 -0.105 1.3925 -0.43 1.3025 -0.7725 -0.09 -0.3425 -3.2375 0.89 -3.2675 -0.52s2.2275 -1.56 3.2675 -1.59c1.04 -0.03 2.8225 0.2075 2.8225 0.2075s-0.3125 -1.7075 -0.105 -2.925 0.7275 -2.0475 0.7275 -2.0475z"
   fill="#FF2A23"
   stroke-width="0.25"
   id="path13" />
  <path
   d="M7.22 2.1425c-0.4 0.415 -0.565 2.8075 -0.3125 3.995s0.475 1.6925 0.995 1.59c0.435 -0.0875 0.6975 -2.4175 0.905 -3.2375 0.2225 -0.875 0.7725 -1.805 0.55 -2.2125 -0.34 -0.625 -1.72 -0.5675 -2.1375 -0.135z"
   fill="#FCC9D2"
   stroke-width="0.25"
   id="path14" />
<text
   xml:space="preserve"
   style="font-style:normal;font-variant:normal;font-weight:bold;font-stretch:normal;font-size:28.5436px;font-family:Calibri;-inkscape-font-specification:'Calibri Bold';text-align:start;writing-mode:lr-tb;direction:ltr;text-anchor:start;fill:#ffffff;fill-opacity:1;stroke:#000000;stroke-width:0.334495;stroke-opacity:1"
   x="-1.5847515"
   y="31.361628"
   id="text15"
   transform="scale(0.99930239,1.0006981)"><tspan
     sodipodi:role="line"
     id="tspan15"
     x="-1.5847515"
     y="31.361628"
     style="font-style:normal;font-variant:normal;font-weight:bold;font-stretch:normal;font-family:'Segoe UI';-inkscape-font-specification:'Segoe UI Bold';fill:#ffffff;fill-opacity:1;stroke:#000000;stroke-width:0.334495;stroke-opacity:1">B</tspan></text></svg>
